<?xml version="1.0" encoding="UTF-8"?><svg id="a" xmlns="http://www.w3.org/2000/svg" viewBox="0 0 87.5 100.5"><path d="M83.3,67v4.2l-3.6,.3-.3,3.6h-4.2v-12.2h-4.5v4l-3.6,.3-.2,4.1h-12.8l-.2-4.1-3.8-.3v-8.3h-12.9v8.4l-3.8,.3v4h-12.9l-.2-4.1-3.6-.2-.2-4.1h-4.3v12.3h-4.1l-.3-3.7-3.6-.3v-4.2h3.6v-12.5h-3.6v-4.1l3.6-.3v-7.9l-3.6-.2v-8.6h0c26.4,0,52.8,0,79.3,0h0v8.5l-3.6,.3v7.9l3.6,.2v4.3h-3.6v12.5h3.6Zm-54.2-4.3h-4.2v4.1h4.1c0-1.5,0-2.9,0-4.2h4.2v-4.1h-4.1v4.2Zm33.6,0h4.2v-4.1h-4.1c0,1.5,0,2.9,0,4.2h-4.2v4.1h4.1v-4.2Zm-46.1-12.5h20.5l.3,4.2h12.7l.3-4.2c6.9,0,13.7,0,20.5,0v4.2h4.1v-4.1h-4.2v-4.2H16.7c0,1.5,0,2.9,0,4.2h-4.2v4.1h4.1v-4.2Z"/><path d="M33.5,4.1V0h20.5V4.1h-7.9v4.2l4,.2,.3,3.6,3.5,.3v8.4l-3.8,.3v4.2h-4.1l-.2,3.5h-4.1l-.2-3.5-4.1-.2-.2-4.1-3.5-.2V12.4l3.5-.3,.3-3.5,4-.2V4.1h-7.9Z"/><path d="M54,96.3v4.1h-20.5v-4.1h20.5Z"/><path d="M4.2,67H0v-12.4c1.4,0,2.8,0,4.2,0h0v12.5h0Z"/><path d="M83.3,54.6h4.2v12.4c-1.4,0-2.8,0-4.2,0h0v-12.5h0Z"/><path d="M62.7,92v4.3c-3,0-5.8,0-8.7,0h0v-4.3h8.6Z"/><path d="M33.5,96.3h-8.7v-4.3h8.6v4.4h0Z"/><path d="M75.2,75.1v8.7h-4.3v-8.6h4.3Z"/><path d="M16.7,83.8h-4.3c0-3,0-5.8,0-8.7h4.3v8.8h0Z"/><path d="M24.8,8.5V4.1c3,0,5.8,0,8.7,0h0v4.3h-8.6Z"/><path d="M54,4.1h8.7v4.3h-8.6V4.1h0Z"/><path d="M4.2,33.4H0v-8.1H4.1v8.1h0Z"/><path d="M83.3,25.3h4.2v8.1c-1.4,0-2.8,0-4.2,0h0c0-2.7,0-5.4,0-8.1h0Z"/><path d="M16.7,12.3v-3.8c2.8,0,5.5,0,8.1,0h0v3.7h-8.1Z"/><path d="M62.7,8.5h8.1v3.8h-8.1v-3.9h0Z"/><path d="M12.3,16.6v-4.3c1.5,0,2.9,0,4.3,0h0v4.3h-4.3Z"/><path d="M75.2,16.6h4.3v4.3h-4.3v-4.4h0Z"/><path d="M8,21v-4.3h4.3v4.3H8Z"/><path d="M70.8,12.3h4.3c0,1.6,0,3,0,4.3h-4.3v-4.4h0Z"/><path d="M79.5,21h3.8v4.3h-3.7v-4.4h0Z"/><path d="M4.2,25.3v-4.3c1.4,0,2.6,0,3.8,0h0v4.3h-3.7Z"/><path d="M20.5,88.2h-3.8v-4.3h3.7v4.4h0Z"/><path d="M70.8,83.8v4.3h-3.7v-4.3h3.7Z"/><path d="M24.8,92h-4.3c0-1.4,0-2.6,0-3.8h4.3v3.9h0Z"/><path d="M67,88.2v3.8c-1.6,0-3,0-4.3,0h0v-3.7h4.3Z"/><path d="M50.1,84.1v4h-12.8v-4h12.8Z"/><path d="M45.8,75.1h-4v-12.2h4v12.2Z"/></svg>